<svg width="50" height="50" viewBox="0 0 50 50" fill="none" xmlns="http://www.w3.org/2000/svg">
<g id="spring-svgrepo-com 1" clip-path="url(#clip0_60_2)">
<g id="Group">
<path id="Vector" fill-rule="evenodd" clip-rule="evenodd" d="M8.54063 43.7391C9.45625 44.4781 10.8 44.3406 11.5375 43.4234C12.2797 42.5094 12.1406 41.1656 11.225 40.4234C10.3109 39.6828 8.96875 39.825 8.225 40.7391C7.52187 41.6062 7.6125 42.8578 8.40469 43.6203L7.98906 43.2547C3.08125 38.6906 0 32.1828 0 24.9656C0 11.2 11.2 0 24.9687 0C31.9687 0 38.2969 2.90156 42.8359 7.55625C43.8672 6.15312 44.7609 4.58438 45.4922 2.84531C48.6734 12.4047 50.5437 20.4391 49.8594 26.7672C48.9344 39.6953 38.1281 49.9391 24.9687 49.9391C18.8562 49.9391 13.2562 47.7266 8.9125 44.0688L8.54063 43.7391ZM45.3844 35.9547C51.65 27.6172 48.1578 14.1344 45.2516 5.51719C42.6625 10.9125 36.2859 15.0391 30.7797 16.3453C25.6187 17.5766 21.0516 16.5672 16.275 18.4047C5.38438 22.5922 5.55625 35.5797 11.5562 38.4984C11.5594 38.4984 11.9156 38.6922 11.9109 38.6859C11.9109 38.6828 20.7297 36.9328 25.6047 35.1328C32.7297 32.5016 40.5516 26.0156 43.125 18.4813C41.7547 26.3172 35.0281 33.8563 28.2703 37.3188C24.6734 39.1656 21.8766 39.5766 15.9578 41.625C15.2328 41.8719 14.6641 42.1156 14.6641 42.1156C16.1641 41.8656 17.6594 41.7844 17.6594 41.7844C26.0859 41.3859 39.2328 44.1531 45.3859 35.9562L45.3844 35.9547Z" fill="black"/>
</g>
</g>
<defs>
<clipPath id="clip0_60_2">
<rect width="50" height="50" fill="white"/>
</clipPath>
</defs>
</svg>
